<svg xmlns="http://www.w3.org/2000/svg" width="641" height="481" viewBox="0 0 641 481">
  <title>webdevelopment</title>
  <g id="Layer_2" data-name="Layer 2">
    <rect x="0.5" y="0.5" width="640" height="480" fill="#fff" stroke="#000" stroke-miterlimit="10"/>
  </g>
  <g id="Layer_3" data-name="Layer 3">
    <polygon points="54.42 434.74 50.44 438.72 46.45 434.74 54.42 434.74" fill="#fff" opacity="0.65"/>
    <polygon points="587.67 296.1 577.64 306.13 567.6 296.1 587.67 296.1" fill="#fff" opacity="0.65"/>
    <polygon points="571.15 339.2 555.24 355.12 539.32 339.2 571.15 339.2" fill="#fff" opacity="0.33"/>
    <polygon points="52.9 39.51 46.45 45.96 40.01 39.51 52.9 39.51" fill="#fff" opacity="0.65"/>
    <polygon points="37.92 118 27.89 128.04 17.86 118 37.92 118" fill="#fff" opacity="0.45"/>
    <polygon points="640.5 421.15 632.87 428.79 625.24 421.15 640.5 421.15" fill="#fff" opacity="0.65"/>
    <polygon points="598.83 102.07 587.86 113.05 576.88 102.07 598.83 102.07" fill="#fff" opacity="0.45"/>
    <polygon points="298.93 69.37 291.3 77 283.67 69.37 298.93 69.37" fill="#fff" opacity="0.65"/>
    <polygon points="577.64 66.13 571.15 72.61 564.67 66.13 577.64 66.13" fill="#fff" opacity="0.45"/>
    <polygon points="180.64 22.26 168.66 34.24 156.68 22.26 180.64 22.26" fill="#fff" opacity="0.33"/>
    <polygon points="114.47 404.16 97.48 421.15 80.48 404.16 114.47 404.16" fill="#fff" opacity="0.45"/>
    <polygon points="238.75 313.11 137.61 313.11 137.61 303.8 238.75 313.11" fill="#262838" stroke="#fff" stroke-miterlimit="10" stroke-width="0.3" opacity="0.75"/>
    <polygon points="137.64 303.79 238.78 303.79 238.78 313.11 137.64 303.79" fill="#262838" stroke="#fff" stroke-miterlimit="10" stroke-width="0.3" opacity="0.75"/>
    <polygon points="372.96 313.11 239 313.11 239 303.8 372.96 313.11" fill="#262838" stroke="#fff" stroke-miterlimit="10" stroke-width="0.3" opacity="0.75"/>
    <polygon points="239.05 303.79 373 303.79 373 313.11 239.05 303.79" fill="#262838" stroke="#fff" stroke-miterlimit="10" stroke-width="0.3" opacity="0.55"/>
    <polygon points="297.4 315.95 349.82 315.95 349.82 344.94 297.4 315.95" fill="#262838" stroke="#fff" stroke-miterlimit="10" stroke-width="0.3" opacity="0.87"/>
    <polygon points="349.8 344.95 297.39 344.95 297.39 315.95 349.8 344.95" fill="#262838" stroke="#fff" stroke-miterlimit="10" stroke-width="0.3" opacity="0.75"/>
    <polygon points="506.86 313.11 372.91 313.11 372.91 303.8 506.86 313.11" fill="#262838" stroke="#fff" stroke-miterlimit="10" stroke-width="0.3" opacity="0.75"/>
    <polygon points="372.95 303.79 506.91 303.79 506.91 313.11 372.95 303.79" fill="#262838" stroke="#fff" stroke-miterlimit="10" stroke-width="0.3" opacity="0.55"/>
    <polygon points="229.67 212.25 137.34 212.25 137.34 119.93 229.67 212.25" fill="#262838" stroke="#fff" stroke-miterlimit="10" stroke-width="0.3" opacity="0.9"/>
    <polygon points="137.38 119.9 229.7 119.9 229.7 212.22 137.38 119.9" fill="#262838" stroke="#fff" stroke-miterlimit="10" stroke-width="0.3" opacity="0.85"/>
    <polygon points="322.17 212.25 229.85 212.25 229.85 119.93 322.17 212.25" fill="#262838" stroke="#fff" stroke-miterlimit="10" stroke-width="0.3" opacity="0.94"/>
    <polygon points="229.88 119.9 322.2 119.9 322.2 212.22 229.88 119.9" fill="#262838" stroke="#fff" stroke-miterlimit="10" stroke-width="0.3" opacity="0.85"/>
    <polygon points="414.46 212.25 322.14 212.25 322.14 119.93 414.46 212.25" fill="#262838" stroke="#fff" stroke-miterlimit="10" stroke-width="0.3" opacity="0.9"/>
    <polygon points="322.17 119.9 414.49 119.9 414.49 212.22 322.17 119.9" fill="#262838" stroke="#fff" stroke-miterlimit="10" stroke-width="0.3" opacity="0.94"/>
    <polygon points="229.76 304.57 137.44 304.57 137.44 212.25 229.76 304.57" fill="#262838" stroke="#fff" stroke-miterlimit="10" stroke-width="0.3" opacity="0.94"/>
    <polygon points="137.47 212.22 229.79 212.22 229.79 304.54 137.47 212.22" fill="#262838" stroke="#fff" stroke-miterlimit="10" stroke-width="0.3" opacity="0.9"/>
    <polygon points="322.27 304.57 229.94 304.57 229.94 212.25 322.27 304.57" fill="#262838" stroke="#fff" stroke-miterlimit="10" stroke-width="0.3" opacity="0.94"/>
    <polygon points="229.97 212.22 322.3 212.22 322.3 304.54 229.97 212.22" fill="#262838" stroke="#fff" stroke-miterlimit="10" stroke-width="0.3" opacity="0.98"/>
    <polygon points="414.56 304.57 322.23 304.57 322.23 212.25 414.56 304.57" fill="#262838" stroke="#fff" stroke-miterlimit="10" stroke-width="0.3" opacity="0.94"/>
    <polygon points="322.26 212.22 414.59 212.22 414.59 304.54 322.26 212.22" fill="#262838" stroke="#fff" stroke-miterlimit="10" stroke-width="0.3" opacity="0.98"/>
    <polygon points="506.91 212.25 414.59 212.25 414.59 119.93 506.91 212.25" fill="#262838" stroke="#fff" stroke-miterlimit="10" stroke-width="0.3" opacity="0.9"/>
    <polygon points="414.62 119.9 506.94 119.9 506.94 212.22 414.62 119.9" fill="#262838" stroke="#fff" stroke-miterlimit="10" stroke-width="0.3" opacity="0.94"/>
    <polygon points="507 304.57 414.68 304.57 414.68 212.25 507 304.57" fill="#262838" stroke="#fff" stroke-miterlimit="10" stroke-width="0.3" opacity="0.94"/>
    <polygon points="414.71 212.22 507.03 212.22 507.03 304.54 414.71 212.22" fill="#262838" stroke="#fff" stroke-miterlimit="10" stroke-width="0.3" opacity="0.98"/>
    <polygon points="371.86 354.13 371.88 349.95 367.7 349.92 371.86 354.13" fill="#262838" stroke="#fff" stroke-miterlimit="10" stroke-width="0.3" opacity="0.55"/>
    <polygon points="367.7 349.92 367.68 354.1 371.86 354.13 367.7 349.92" fill="#262838" stroke="#fff" stroke-miterlimit="10" stroke-width="0.3" opacity="0.75"/>
    <polygon points="367.73 345.74 367.7 349.92 371.88 349.95 367.73 345.74" fill="#262838" stroke="#fff" stroke-miterlimit="10" stroke-width="0.3" opacity="0.55"/>
    <polygon points="367.65 358.28 367.68 354.1 371.86 354.13 367.65 358.28" fill="#262838" stroke="#fff" stroke-miterlimit="10" stroke-width="0.3" opacity="0.75"/>
    <polygon points="271.64 354.12 271.56 349.94 275.74 349.86 271.64 354.12" fill="#262838" stroke="#fff" stroke-miterlimit="10" stroke-width="0.3" opacity="0.55"/>
    <polygon points="275.74 349.86 275.82 354.04 271.64 354.12 275.74 349.86" fill="#262838" stroke="#fff" stroke-miterlimit="10" stroke-width="0.3" opacity="0.75"/>
    <polygon points="275.65 345.68 275.74 349.86 271.56 349.94 275.65 345.68" fill="#262838" stroke="#fff" stroke-miterlimit="10" stroke-width="0.3" opacity="0.55"/>
    <polygon points="275.9 358.22 275.82 354.04 271.64 354.12 275.9 358.22" fill="#262838" stroke="#fff" stroke-miterlimit="10" stroke-width="0.3" opacity="0.75"/>
    <polygon points="367.62 358.13 367.63 351.88 275.91 351.91 367.62 358.13" fill="#262838" stroke="#fff" stroke-miterlimit="10" stroke-width="0.3" opacity="0.75"/>
    <polygon points="275.91 351.91 275.9 358.16 367.62 358.13 275.91 351.91" fill="#262838" stroke="#fff" stroke-miterlimit="10" stroke-width="0.3" opacity="0.75"/>
    <polygon points="367.65 345.62 367.63 351.87 275.91 351.89 367.65 345.62" fill="#262838" stroke="#fff" stroke-miterlimit="10" stroke-width="0.3" opacity="0.55"/>
    <polygon points="275.91 351.89 275.93 345.64 367.65 345.62 275.91 351.89" fill="#262838" stroke="#fff" stroke-miterlimit="10" stroke-width="0.3" opacity="0.55"/>
    <polygon points="382.04 160.71 432.9 160.71 432.9 167.48 382.04 160.71" fill="#6affd9" stroke="#fff" stroke-miterlimit="10" stroke-width="0.3"/>
    <polygon points="432.88 167.48 382.02 167.48 382.02 160.71 432.88 167.48" fill="#6affd9" stroke="#fff" stroke-miterlimit="10" stroke-width="0.3" opacity="0.85"/>
    <polygon points="285.73 160.71 319.94 160.71 319.94 167.48 285.73 160.71" fill="#f6715e" stroke="#fff" stroke-miterlimit="10" stroke-width="0.3"/>
    <polygon points="319.92 167.48 285.71 167.48 285.71 160.71 319.92 167.48" fill="#f6715e" stroke="#fff" stroke-miterlimit="10" stroke-width="0.3" opacity="0.85"/>
    <polygon points="287.42 166.81 287.42 265.68 285.73 265.68 287.42 166.81" fill="#fff" stroke="#fff" stroke-miterlimit="10" stroke-width="0.3" opacity="0.3"/>
    <polygon points="285.73 265.65 285.73 166.77 287.42 166.77 285.73 265.65" fill="#fff" stroke="#fff" stroke-miterlimit="10" stroke-width="0.3" opacity="0.3"/>
    <polygon points="326.39 160.71 374.92 160.71 374.92 167.48 326.39 160.71" fill="#f6715e" stroke="#fff" stroke-miterlimit="10" stroke-width="0.3"/>
    <polygon points="374.9 167.48 326.37 167.48 326.37 160.71 374.9 167.48" fill="#f6715e" stroke="#fff" stroke-miterlimit="10" stroke-width="0.3" opacity="0.85"/>
    <polygon points="440.4 160.71 475.66 160.71 475.66 167.48 440.4 160.71" fill="#f6715e" stroke="#fff" stroke-miterlimit="10" stroke-width="0.3"/>
    <polygon points="475.65 167.48 440.39 167.48 440.39 160.71 475.65 167.48" fill="#f6715e" stroke="#fff" stroke-miterlimit="10" stroke-width="0.3" opacity="0.85"/>
    <polygon points="372.35 183.88 398.72 183.88 398.72 190.65 372.35 183.88" fill="#6affd9" stroke="#fff" stroke-miterlimit="10" stroke-width="0.3"/>
    <polygon points="398.71 190.65 372.34 190.65 372.34 183.88 398.71 190.65" fill="#6affd9" stroke="#fff" stroke-miterlimit="10" stroke-width="0.3" opacity="0.85"/>
    <polygon points="406.38 183.88 434.16 183.88 434.16 190.65 406.38 183.88" fill="#f27461" stroke="#fff" stroke-miterlimit="10" stroke-width="0.3"/>
    <polygon points="434.15 190.65 406.37 190.65 406.37 183.88 434.15 190.65" fill="#f27461" stroke="#fff" stroke-miterlimit="10" stroke-width="0.3" opacity="0.85"/>
    <polygon points="440.14 183.88 475.66 183.88 475.66 190.65 440.14 183.88" fill="#fbc761" stroke="#fff" stroke-miterlimit="10" stroke-width="0.3"/>
    <polygon points="475.65 190.65 440.13 190.65 440.13 183.88 475.65 190.65" fill="#fbc761" stroke="#fff" stroke-miterlimit="10" stroke-width="0.3" opacity="0.85"/>
    <polygon points="312.36 211.71 344.45 211.71 344.45 217.14 312.36 211.71" fill="#6affd9" stroke="#fff" stroke-miterlimit="10" stroke-width="0.3"/>
    <polygon points="344.44 217.14 312.35 217.14 312.35 211.71 344.44 217.14" fill="#6affd9" stroke="#fff" stroke-miterlimit="10" stroke-width="0.3" opacity="0.85"/>
    <polygon points="351.02 211.71 382.23 211.71 382.23 217.14 351.02 211.71" fill="#828282" stroke="#fff" stroke-miterlimit="10" stroke-width="0.3"/>
    <polygon points="382.22 217.14 351.01 217.14 351.01 211.71 382.22 217.14" fill="#828282" stroke="#fff" stroke-miterlimit="10" stroke-width="0.3" opacity="0.85"/>
    <polygon points="390.61 211.71 402.6 211.71 402.6 217.14 390.61 211.71" fill="#6affd9" stroke="#fff" stroke-miterlimit="10" stroke-width="0.3"/>
    <polygon points="402.6 217.14 390.6 217.14 390.6 211.71 402.6 217.14" fill="#6affd9" stroke="#fff" stroke-miterlimit="10" stroke-width="0.3" opacity="0.85"/>
    <polygon points="409.58 211.71 451.91 211.71 451.91 217.14 409.58 211.71" fill="#f27461" stroke="#fff" stroke-miterlimit="10" stroke-width="0.3"/>
    <polygon points="451.89 217.14 409.56 217.14 409.56 211.71 451.89 217.14" fill="#f27461" stroke="#fff" stroke-miterlimit="10" stroke-width="0.3" opacity="0.85"/>
    <polygon points="312.35 243.13 326.23 243.13 326.23 248.55 312.35 243.13" fill="#6affd9" stroke="#fff" stroke-miterlimit="10" stroke-width="0.3"/>
    <polygon points="326.22 248.56 312.35 248.56 312.35 243.13 326.22 248.56" fill="#6affd9" stroke="#fff" stroke-miterlimit="10" stroke-width="0.3" opacity="0.85"/>
    <polygon points="287.42 267.29 287.42 274.23 284.7 274.23 287.42 267.29" fill="#fff" stroke="#fff" stroke-miterlimit="10" stroke-width="0.3"/>
    <polygon points="284.7 274.23 284.7 267.29 287.42 267.29 284.7 274.23" fill="#fff" stroke="#fff" stroke-miterlimit="10" stroke-width="0.3" opacity="0.85"/>
    <polygon points="299.08 190.04 299.08 254.08 297.39 254.08 299.08 190.04" fill="#fff" stroke="#fff" stroke-miterlimit="10" stroke-width="0.3" opacity="0.3"/>
    <polygon points="297.39 254.04 297.39 190.01 299.08 190.01 297.39 254.04" fill="#fff" stroke="#fff" stroke-miterlimit="10" stroke-width="0.3" opacity="0.3"/>
    <polygon points="299.08 255.69 299.08 262.63 296.37 262.63 299.08 255.69" fill="#fff" stroke="#fff" stroke-miterlimit="10" stroke-width="0.3"/>
    <polygon points="296.37 262.63 296.37 255.69 299.08 255.69 296.37 262.63" fill="#fff" stroke="#fff" stroke-miterlimit="10" stroke-width="0.3" opacity="0.85"/>
    <polygon points="332.8 243.13 356.44 243.13 356.44 248.55 332.8 243.13" fill="#fbc761" stroke="#fff" stroke-miterlimit="10" stroke-width="0.3"/>
    <polygon points="356.43 248.56 332.79 248.56 332.79 243.13 356.43 248.56" fill="#fbc761" stroke="#fff" stroke-miterlimit="10" stroke-width="0.3" opacity="0.85"/>
    <polygon points="363.64 243.13 412.38 243.13 412.38 248.55 363.64 243.13" fill="#828282" stroke="#fff" stroke-miterlimit="10" stroke-width="0.3"/>
    <polygon points="412.37 248.56 363.63 248.56 363.63 243.13 412.37 248.56" fill="#828282" stroke="#fff" stroke-miterlimit="10" stroke-width="0.3" opacity="0.85"/>
    <polygon points="420.94 243.42 451.91 243.42 451.91 248.85 420.94 243.42" fill="#6affd9" stroke="#fff" stroke-miterlimit="10" stroke-width="0.3"/>
    <polygon points="451.9 248.85 420.93 248.85 420.93 243.42 451.9 248.85" fill="#6affd9" stroke="#fff" stroke-miterlimit="10" stroke-width="0.3" opacity="0.85"/>
    <polygon points="312.36 227.57 356.33 227.57 356.33 232.99 312.36 227.57" fill="#6affd9" stroke="#fff" stroke-miterlimit="10" stroke-width="0.3"/>
    <polygon points="356.32 233 312.35 233 312.35 227.57 356.32 233" fill="#6affd9" stroke="#fff" stroke-miterlimit="10" stroke-width="0.3" opacity="0.85"/>
    <polygon points="363.63 227.57 396.83 227.57 396.83 232.99 363.63 227.57" fill="#828282" stroke="#fff" stroke-miterlimit="10" stroke-width="0.3"/>
    <polygon points="396.82 233 363.62 233 363.62 227.57 396.82 233" fill="#828282" stroke="#fff" stroke-miterlimit="10" stroke-width="0.3" opacity="0.85"/>
    <polygon points="405.49 227.57 419.29 227.57 419.29 232.99 405.49 227.57" fill="#f27461" stroke="#fff" stroke-miterlimit="10" stroke-width="0.3"/>
    <polygon points="419.29 233 405.48 233 405.48 227.57 419.29 233" fill="#f27461" stroke="#fff" stroke-miterlimit="10" stroke-width="0.3" opacity="0.85"/>
    <polygon points="428.07 227.57 451.89 227.57 451.89 232.99 428.07 227.57" fill="#6affd9" stroke="#fff" stroke-miterlimit="10" stroke-width="0.3"/>
    <polygon points="451.89 233 428.06 233 428.06 227.57 451.89 233" fill="#6affd9" stroke="#fff" stroke-miterlimit="10" stroke-width="0.3" opacity="0.85"/>
    <polygon points="297.19 183.88 320.46 183.88 320.46 190.65 297.19 183.88" fill="#f6715e" stroke="#fff" stroke-miterlimit="10" stroke-width="0.3"/>
    <polygon points="320.45 190.65 297.18 190.65 297.18 183.88 320.45 190.65" fill="#f6715e" stroke="#fff" stroke-miterlimit="10" stroke-width="0.3" opacity="0.85"/>
    <polygon points="326.4 183.88 366.52 183.88 366.52 190.65 326.4 183.88" fill="#6affd9" stroke="#fff" stroke-miterlimit="10" stroke-width="0.3"/>
    <polygon points="366.51 190.65 326.39 190.65 326.39 183.88 366.51 190.65" fill="#6affd9" stroke="#fff" stroke-miterlimit="10" stroke-width="0.3" opacity="0.85"/>
    <polygon points="208.18 169.68 208.18 180.7 197.16 180.7 208.18 169.68" fill="#6affd9" stroke="#fff" stroke-miterlimit="10" stroke-width="0.3" opacity="0.85"/>
    <polygon points="230.22 180.7 219.2 180.7 219.2 169.68 230.22 180.7" fill="#6affd9" stroke="#fff" stroke-miterlimit="10" stroke-width="0.3" opacity="0.95"/>
    <polygon points="241.24 191.72 230.22 191.72 230.22 180.7 241.24 191.72" fill="#6affd9" stroke="#fff" stroke-miterlimit="10" stroke-width="0.3" opacity="0.95"/>
    <polygon points="208.18 180.7 208.18 169.68 219.2 169.68 208.18 180.7" fill="#6affd9" stroke="#fff" stroke-miterlimit="10" stroke-width="0.3" opacity="0.85"/>
    <polygon points="219.19 169.68 219.19 180.7 208.18 180.7 219.19 169.68" fill="#6affd9" stroke="#fff" stroke-miterlimit="10" stroke-width="0.3" opacity="0.85"/>
    <polygon points="208.18 168.34 208.18 162.83 213.69 162.83 208.18 168.34" fill="#6affd9" stroke="#fff" stroke-miterlimit="10" stroke-width="0.3" opacity="0.85"/>
    <polygon points="213.69 162.83 213.69 168.34 208.18 168.34 213.69 162.83" fill="#6affd9" stroke="#fff" stroke-miterlimit="10" stroke-width="0.3" opacity="0.85"/>
    <polygon points="213.69 168.34 213.69 162.83 219.21 162.83 213.69 168.34" fill="#6affd9" stroke="#fff" stroke-miterlimit="10" stroke-width="0.3" opacity="0.95"/>
    <polygon points="219.2 162.83 219.2 168.34 213.69 168.34 219.2 162.83" fill="#6affd9" stroke="#fff" stroke-miterlimit="10" stroke-width="0.3" opacity="0.95"/>
    <polygon points="210.93 160.08 210.93 162.83 208.18 162.83 210.93 160.08" fill="#6affd9" stroke="#fff" stroke-miterlimit="10" stroke-width="0.3" opacity="0.85"/>
    <polygon points="210.93 162.83 210.93 160.08 213.69 160.08 210.93 162.83" fill="#6affd9" stroke="#fff" stroke-miterlimit="10" stroke-width="0.3" opacity="0.85"/>
    <polygon points="213.68 160.08 213.68 162.83 210.93 162.83 213.68 160.08" fill="#6affd9" stroke="#fff" stroke-miterlimit="10" stroke-width="0.3" opacity="0.85"/>
    <polygon points="216.45 160.08 216.45 162.83 219.2 162.83 216.45 160.08" fill="#6affd9" stroke="#fff" stroke-miterlimit="10" stroke-width="0.3" opacity="0.95"/>
    <polygon points="216.45 162.83 216.45 160.08 213.69 160.08 216.45 162.83" fill="#6affd9" stroke="#fff" stroke-miterlimit="10" stroke-width="0.3" opacity="0.95"/>
    <polygon points="213.69 160.08 213.69 162.83 216.45 162.83 213.69 160.08" fill="#6affd9" stroke="#fff" stroke-miterlimit="10" stroke-width="0.3" opacity="0.95"/>
    <polygon points="197.16 261.59 205.41 261.59 205.41 269.84 197.16 261.59" fill="#6affd9" stroke="#fff" stroke-miterlimit="10" stroke-width="0.3" opacity="0.95"/>
    <polygon points="221.9 269.84 221.9 261.59 230.14 261.59 221.9 269.84" fill="#6affd9" stroke="#fff" stroke-miterlimit="10" stroke-width="0.3" opacity="0.95"/>
    <polygon points="197.16 180.7 197.16 191.72 186.14 191.72 197.16 180.7" fill="#6affd9" stroke="#fff" stroke-miterlimit="10" stroke-width="0.3" opacity="0.85"/>
    <polygon points="197.16 191.72 197.16 180.7 208.18 180.7 197.16 191.72" fill="#6affd9" stroke="#fff" stroke-miterlimit="10" stroke-width="0.3" opacity="0.85"/>
    <polygon points="208.18 180.7 208.18 191.72 197.16 191.72 208.18 180.7" fill="#6affd9" stroke="#fff" stroke-miterlimit="10" stroke-width="0.3" opacity="0.85"/>
    <polygon points="208.18 191.72 208.18 180.7 219.2 180.7 208.18 191.72" fill="#6affd9" stroke="#fff" stroke-miterlimit="10" stroke-width="0.3" opacity="0.85"/>
    <polygon points="219.2 180.7 219.2 191.72 208.18 191.72 219.2 180.7" fill="#6affd9" stroke="#fff" stroke-miterlimit="10" stroke-width="0.3" opacity="0.85"/>
    <polygon points="219.2 191.72 219.2 180.7 230.22 180.7 219.2 191.72" fill="#6affd9" stroke="#fff" stroke-miterlimit="10" stroke-width="0.3" opacity="0.85"/>
    <polygon points="230.22 180.7 230.22 191.72 219.2 191.72 230.22 180.7" fill="#6affd9" stroke="#fff" stroke-miterlimit="10" stroke-width="0.3" opacity="0.95"/>
    <polygon points="186.14 207.11 186.14 196.09 197.16 196.09 186.14 207.11" fill="#6affd9" stroke="#fff" stroke-miterlimit="10" stroke-width="0.3" opacity="0.95"/>
    <polygon points="197.15 196.09 197.15 207.11 186.13 207.11 197.15 196.09" fill="#6affd9" stroke="#fff" stroke-miterlimit="10" stroke-width="0.3" opacity="0.95"/>
    <polygon points="205.41 253.33 205.41 261.59 197.15 261.59 205.41 253.33" fill="#6affd9" stroke="#fff" stroke-miterlimit="10" stroke-width="0.3" opacity="0.95"/>
    <polygon points="197.15 261.59 197.15 253.33 205.41 253.33 197.15 261.59" fill="#6affd9" stroke="#fff" stroke-miterlimit="10" stroke-width="0.3" opacity="0.95"/>
    <polygon points="205.41 261.59 205.41 253.33 213.66 253.33 205.41 261.59" fill="#6affd9" stroke="#fff" stroke-miterlimit="10" stroke-width="0.3" opacity="0.95"/>
    <polygon points="213.66 253.33 213.66 261.59 205.4 261.59 213.66 253.33" fill="#6affd9" stroke="#fff" stroke-miterlimit="10" stroke-width="0.3" opacity="0.95"/>
    <polygon points="213.65 261.59 213.65 253.33 221.9 253.33 213.65 261.59" fill="#6affd9" stroke="#fff" stroke-miterlimit="10" stroke-width="0.3" opacity="0.95"/>
    <polygon points="221.9 253.33 221.9 261.59 213.64 261.59 221.9 253.33" fill="#6affd9" stroke="#fff" stroke-miterlimit="10" stroke-width="0.3" opacity="0.95"/>
    <polygon points="205.41 269.84 205.41 261.58 213.66 261.58 205.41 269.84" fill="#6affd9" stroke="#fff" stroke-miterlimit="10" stroke-width="0.3" opacity="0.95"/>
    <polygon points="213.66 261.58 213.66 269.84 205.4 269.84 213.66 261.58" fill="#6affd9" stroke="#fff" stroke-miterlimit="10" stroke-width="0.3" opacity="0.95"/>
    <polygon points="213.65 269.84 213.65 261.58 221.9 261.58 213.65 269.84" fill="#6affd9" stroke="#fff" stroke-miterlimit="10" stroke-width="0.3" opacity="0.95"/>
    <polygon points="221.9 261.58 221.9 269.84 213.64 269.84 221.9 261.58" fill="#6affd9" stroke="#fff" stroke-miterlimit="10" stroke-width="0.3" opacity="0.95"/>
    <polygon points="221.9 253.34 230.15 253.34 230.15 261.59 221.9 253.34" fill="#6affd9" stroke="#fff" stroke-miterlimit="10" stroke-width="0.3" opacity="0.95"/>
    <polygon points="230.15 261.59 221.9 261.59 221.9 253.33 230.15 261.59" fill="#6affd9" stroke="#fff" stroke-miterlimit="10" stroke-width="0.3" opacity="0.95"/>
    <polygon points="186.15 251.18 186.15 207.11 230.23 207.11 186.15 251.18" fill="#6affd9" stroke="#fff" stroke-miterlimit="10" stroke-width="0.3" opacity="0.84"/>
    <polygon points="230.2 207.11 230.2 251.18 186.13 251.18 230.2 207.11" fill="#6affd9" stroke="#fff" stroke-miterlimit="10" stroke-width="0.3" opacity="0.84"/>
    <polygon points="261.31 251.18 242.92 251.18 242.92 232.79 261.31 251.18" fill="#6affd9" stroke="#fff" stroke-miterlimit="10" stroke-width="0.3" opacity="0.8"/>
    <polygon points="248.53 251.18 261.31 251.18 261.31 263.97 248.53 251.18" fill="#6affd9" stroke="#fff" stroke-miterlimit="10" stroke-width="0.3" opacity="0.85"/>
    <polygon points="252.27 254.93 261.31 263.97 252.27 273.01 252.27 254.93" fill="#6affd9" stroke="#fff" stroke-miterlimit="10" stroke-width="0.3" opacity="0.95"/>
    <polygon points="166.06 251.18 184.46 251.18 184.46 232.79 166.06 251.18" fill="#6affd9" stroke="#fff" stroke-miterlimit="10" stroke-width="0.3" opacity="0.8"/>
    <polygon points="178.85 251.18 166.06 251.18 166.06 263.97 178.85 251.18" fill="#6affd9" stroke="#fff" stroke-miterlimit="10" stroke-width="0.3" opacity="0.85"/>
    <polygon points="175.1 254.93 166.06 263.97 175.1 273.01 175.1 254.93" fill="#6affd9" stroke="#fff" stroke-miterlimit="10" stroke-width="0.3" opacity="0.95"/>
    <polygon points="197.16 207.11 197.16 196.09 208.18 196.09 197.16 207.11" fill="#6affd9" stroke="#fff" stroke-miterlimit="10" stroke-width="0.3" opacity="0.95"/>
    <polygon points="208.17 196.09 208.17 207.11 197.16 207.11 208.17 196.09" fill="#6affd9" stroke="#fff" stroke-miterlimit="10" stroke-width="0.3" opacity="0.95"/>
    <polygon points="195.68 241.52 195.68 230.5 206.7 230.5 195.68 241.52" fill="#6affd9" stroke="#fff" stroke-miterlimit="10" stroke-width="0.3" opacity="0.84"/>
    <polygon points="206.7 230.5 206.7 241.52 195.68 241.52 206.7 230.5" fill="#6affd9" stroke="#fff" stroke-miterlimit="10" stroke-width="0.3" opacity="0.84"/>
    <polygon points="208.18 207.11 208.18 196.09 219.2 196.09 208.18 207.11" fill="#6affd9" stroke="#fff" stroke-miterlimit="10" stroke-width="0.3" opacity="0.95"/>
    <polygon points="219.19 196.09 219.19 207.11 208.17 207.11 219.19 196.09" fill="#6affd9" stroke="#fff" stroke-miterlimit="10" stroke-width="0.3" opacity="0.95"/>
    <polygon points="219.21 207.11 219.21 196.09 230.23 196.09 219.21 207.11" fill="#6affd9" stroke="#fff" stroke-miterlimit="10" stroke-width="0.3" opacity="0.95"/>
    <polygon points="230.22 196.09 230.22 207.11 219.2 207.11 230.22 196.09" fill="#6affd9" stroke="#fff" stroke-miterlimit="10" stroke-width="0.3" opacity="0.95"/>
    <polygon points="230.23 207.11 230.23 196.09 241.25 196.09 230.23 207.11" fill="#6affd9" stroke="#fff" stroke-miterlimit="10" stroke-width="0.3" opacity="0.95"/>
    <polygon points="241.24 196.09 241.24 207.11 230.22 207.11 241.24 196.09" fill="#6affd9" stroke="#fff" stroke-miterlimit="10" stroke-width="0.3" opacity="0.95"/>
    <polygon points="230.23 218.13 230.23 207.11 241.25 207.11 230.23 218.13" fill="#6affd9" stroke="#fff" stroke-miterlimit="10" stroke-width="0.3" opacity="0.95"/>
    <polygon points="241.24 207.11 241.24 218.13 230.22 218.13 241.24 207.11" fill="#6affd9" stroke="#fff" stroke-miterlimit="10" stroke-width="0.3" opacity="0.95"/>
    <polygon points="230.23 229.15 230.23 218.13 241.25 218.13 230.23 229.15" fill="#6affd9" stroke="#fff" stroke-miterlimit="10" stroke-width="0.3" opacity="0.95"/>
    <polygon points="241.24 218.13 241.24 229.15 230.22 229.15 241.24 218.13" fill="#6affd9" stroke="#fff" stroke-miterlimit="10" stroke-width="0.3" opacity="0.95"/>
    <polygon points="230.23 240.16 230.23 229.14 241.25 229.14 230.23 240.16" fill="#6affd9" stroke="#fff" stroke-miterlimit="10" stroke-width="0.3" opacity="0.95"/>
    <polygon points="241.24 229.14 241.24 240.16 230.22 240.16 241.24 229.14" fill="#6affd9" stroke="#fff" stroke-miterlimit="10" stroke-width="0.3" opacity="0.95"/>
    <polygon points="230.23 251.18 230.23 240.16 241.25 240.16 230.23 251.18" fill="#6affd9" stroke="#fff" stroke-miterlimit="10" stroke-width="0.3" opacity="0.95"/>
    <polygon points="241.24 240.16 241.24 251.18 230.22 251.18 241.24 240.16" fill="#6affd9" stroke="#fff" stroke-miterlimit="10" stroke-width="0.3" opacity="0.95"/>
  </g>
</svg>
